<?xml version="1.0" encoding="UTF-8"?>
<svg id="Layer_2" data-name="Layer 2" xmlns="http://www.w3.org/2000/svg" viewBox="0 0 587.96 69.41">
  <defs>
    <style>
      .cls-1 {
        fill: #212121;
      }
    </style>
  </defs>
  <g id="Layer_1-2" data-name="Layer 1">
    <g>
      <path class="cls-1" d="M23.02,53.48l-2.74-2.74-.1-50.74H5.32L0,5.24V62.76l6.38,6.65H101.85l5.32-5.23v-10.7H23.02Z"/>
      <path class="cls-1" d="M205.79,23.9h-21.02l-1.55,1.83,15.14,18.96h-33.24l-13.2,15.72h58.95l7.14,9h23.3l-35.52-45.51ZM188.2,0h-23.78l-54.83,69.41h23.29L176.53,15.62h23.64L188.2,0Z"/>
      <path class="cls-1" d="M249.4,0V45.52h16.14l2.99-3.32V0h-19.13Zm86.57,23.9l-2.99,3.31v42.2h19.13V23.9h-16.14ZM321.26,0l-51,53.69h-20.86v15.72h30.85l51.1-53.79h20.76V0h-30.85Z"/>
      <path class="cls-1" d="M387.74,53.48l-2.73-2.74V24.21h-20.28V62.76l6.38,6.65h95.46l5.33-5.23v-10.7h-84.16ZM464.77,0h-94.72l-5.32,5.24V15.83l104.99,.1V4.26l-4.95-4.26Z"/>
      <path class="cls-1" d="M512.24,27.11v15.2h56.06v-15.2h-56.06Zm-8.44,26.37l-2.73-2.74V24.21h-20.28V62.76l6.38,6.65h95.46l5.33-5.23v-10.7h-84.16ZM579.19,0h-93.08l-5.32,5.24V15.83l103.44,.1V4.27l-5.04-4.27Z"/>
    </g>
  </g>
</svg>