<?xml version="1.0" encoding="UTF-8"?>
<svg id="Layer_2" data-name="Layer 2" xmlns="http://www.w3.org/2000/svg" viewBox="0 0 604.5 60.2">
  <defs>
    <style>
      .cls-1, .cls-2 {
        fill: #515251;
      }

      .cls-2 {
        isolation: isolate;
      }

      .cls-2, .cls-3 {
        opacity: .14;
      }
    </style>
  </defs>
  <g id="Layer_2-2" data-name="Layer 2">
    <g class="cls-3">
      <path class="cls-1" d="M604.4,30.5c-26.2,9.6-52.5,19.2-78.7,28.8-.8-3.4-1.4-6.6-2.2-9.7-1.3-4.7-3.7-7.7-6.2-10.3-2.9-3-5.8-6-9-9.3,.9-.9,1.7-1.8,2.5-2.6,3-3.2,6.1-6.2,9-9.6,3.4-4.1,4.7-10.3,5.7-17.1,26.4,9.7,52.7,19.3,79,28.9-.1,.4-.1,.6-.1,.9Z"/>
    </g>
    <path class="cls-2" d="M518.4,60.2c-10.5-7.8-20.7-15.5-31.1-23.3h-70.3v-13.6h70.2c10.4-7.8,20.6-15.4,31.1-23.3-1.8,7.3-4,13.2-7.9,16.8-4.3,4-8.7,7.9-13,11.9-.4,.4-.9,.8-1.5,1.4,4.7,4.3,9.2,8.5,13.7,12.5,4.3,3.7,6.8,9.7,8.8,17.6Z"/>
    <path class="cls-2" d="M60.1,43.1l-1.4-1.4V3.9h-12.5l-4.5,4.5v14.9h-12.7c-2.6-4.9-7.7-8.3-13.6-8.3-8.5,0-15.4,6.9-15.4,15.4s6.9,15.4,15.4,15.4c6.2,0,11.5-3.6,14-8.9h12.4v14.6l5.2,5.5H117.8l4.6-4.5v-9.4H60.1Zm-44.7-7.3c-3,0-5.4-2.4-5.4-5.4s2.4-5.4,5.4-5.4,5.4,2.4,5.4,5.4-2.5,5.4-5.4,5.4Z"/>
    <path class="cls-2" d="M181.2,3.9h-18.5l-15.3,19.4-.7,.9-9.9,12.5-.2,.2-15.8,20.1h19.9l16.3-20.1,.2-.2,2.1-2.5,.1-.1,.1-.1,7.9-9.8,5.3-6.6v-.1h19.1c-.1,0-10.6-13.6-10.6-13.6Zm26.8,35.4l-2.1-2.6-8.6-11-1.2-1.5-2.1-2.7h-16.4l-2,2.4,.2,.3,10,12.5h-22.6l-11.5,13.7h45l5.2,6.6h19.9s-13.8-17.7-13.8-17.7Z"/>
    <path class="cls-2" d="M277.6,3.9l-19.2,20.3-11.8,12.5-6.2,6.6h-15.9v13.7h24.2l19.3-20.3,11.9-12.5,6.3-6.6h15.8V3.9h-24.4Zm10.9,17.5l-.1,.1-2.4,2.7-.3,.3V57h16.2V21.4h-13.4ZM224.4,3.9V39.4h13.4l.1-.1,2.4-2.6,.4-.4V3.9h-16.3Z"/>
    <path class="cls-2" d="M383.8,3.9h-70.3l-4.5,4.5v9.3l79.1,.1V7.6l-4.3-3.7Zm-56.4,39.2l-1.4-1.4V21.6h-17.1v29.9l5.3,5.5h70.9l4.5-4.5v-9.4h-62.2Z"/>
    <path class="cls-2" d="M467.6,3.9h-69.1l-4.5,4.5v9.3l78,.1V7.6l-4.4-3.7Zm-55.1,39.2l-1.4-1.4V21.6h-17.1v29.9l5.3,5.5h70.9l4.5-4.5v-9.4h-62.2Z"/>
  </g>
</svg>